<?xml version="1.0" encoding="utf-8"?>
<!-- Generator: Adobe Illustrator 19.0.0, SVG Export Plug-In . SVG Version: 6.00 Build 0)  -->
<svg version="1.1" id="Layer_1" xmlns="http://www.w3.org/2000/svg" xmlns:xlink="http://www.w3.org/1999/xlink" x="0px" y="0px"
	 width="1400px" height="1400px" viewBox="0 0 1400 1400" enable-background="new 0 0 1400 1400" xml:space="preserve">
<g id="XMLID_1_">
	<ellipse id="XMLID_101_" fill="none" cx="674.6" cy="588.7" rx="339.3" ry="338.4"/>
	<text id="XMLID_100_" transform="matrix(0.8021 -0.5972 0.5972 0.8021 446.4317 315.8706)"><tspan x="0" y="0" fill="#363638" font-family="'BarlowCondensed-Bold'" font-size="77.9741px">A</tspan><tspan x="54.6" y="1.2" fill="#363638" font-family="'BarlowCondensed-Bold'" font-size="77.9741px" rotate="8.6">U</tspan><tspan x="106.7" y="10.4" fill="#363638" font-family="'BarlowCondensed-Bold'" font-size="77.9741px" rotate="17.1">T</tspan><tspan x="154.8" y="26.2" fill="#363638" font-family="'BarlowCondensed-Bold'" font-size="77.9741px" rotate="25.4">O</tspan><tspan x="201.7" y="49.6" fill="#363638" font-family="'BarlowCondensed-Bold'" font-size="77.9741px" rotate="34.2">M</tspan><tspan x="249" y="83.5" fill="#363638" font-family="'BarlowCondensed-Bold'" font-size="77.9741px" rotate="43">O</tspan><tspan x="286.2" y="119.6" fill="#363638" font-family="'BarlowCondensed-Bold'" font-size="77.9741px" rotate="51.3">T</tspan><tspan x="317.5" y="161.1" fill="#363638" font-family="'BarlowCondensed-Bold'" font-size="77.9741px" rotate="58.2">I</tspan><tspan x="334.9" y="189.8" fill="#363638" font-family="'BarlowCondensed-Bold'" font-size="77.9741px" rotate="65.3">V</tspan><tspan x="356.1" y="239.1" fill="#363638" font-family="'BarlowCondensed-Bold'" font-size="77.9741px" rotate="73.6">E</tspan></text>
	<g id="XMLID_16_">
		<g id="XMLID_108_">
			<path id="XMLID_125_" fill="#363638" d="M376.1,821.2V593.3c0-167,135.9-302.9,302.9-302.9s302.9,135.9,302.9,302.9v227.9
				c0,9.8-0.5,19.4-1.4,29c4.9-0.1,9.8-0.2,14.7-0.4c0.8-9.4,1.3-19,1.3-28.6V593.3c0-175.1-142.4-317.5-317.5-317.5
				c-175.1,0-317.5,142.4-317.5,317.5v227.9c0,13.5,0.8,26.7,2.5,39.8c4.9,0,9.8-0.1,14.7-0.1C377,847.9,376.1,834.7,376.1,821.2z"
				/>
		</g>
		<path id="XMLID_118_" fill="#FF6056" d="M966.4,822.8v-231c0-1,0-2,0-3.1c-0.1-6.2-0.3-12.4-0.8-18.5c-0.6-8.3-1.6-16.6-2.9-24.7
			c-0.6-3.8-1.3-7.6-2.1-11.4c-1.7-8.4-3.8-16.7-6.2-24.8c-0.6-1.9-1.2-3.8-1.8-5.7c-2.5-7.7-5.3-15.3-8.4-22.7
			c-0.4-1-0.8-1.9-1.2-2.8c-14.5-33.6-35.3-64-60.8-89.5c-52-52-123.8-84.2-203.2-84.2c-118.3,0-219.9,71.5-264,173.7
			c-0.4,0.9-0.8,1.9-1.2,2.8c-3.1,7.4-5.9,15-8.4,22.7c-0.6,1.9-1.2,3.8-1.8,5.7c-2.4,8.1-4.5,16.4-6.2,24.8
			c-0.8,3.8-1.4,7.6-2.1,11.4c-1.3,8.1-2.3,16.4-2.9,24.7c-0.5,6.1-0.7,12.3-0.8,18.5c0,1,0,2,0,3.1v231c0,12.9,0.9,25.6,2.5,38.1
			c190.3-1.3,380.4-5.6,570.9-10.2C965.9,841.4,966.4,832.1,966.4,822.8z"/>
		<path id="XMLID_103_" fill="#363638" d="M355.8,928.2c0,0,272.8,61.4,284.1,61.9c11.2,0.5,314.8-29.7,314.8-29.7
			s-97.5-69.2-100.6-75.6C851,878.3,334,873.6,334,873.6L355.8,928.2z"/>
		<path id="XMLID_115_" fill="#FFFFFF" d="M962.6,545.5H395.3c0.6-3.8,1.3-7.6,2.1-11.4h563.2C961.3,537.9,962,541.7,962.6,545.5z"
			/>
		<path id="XMLID_114_" fill="#FFFFFF" d="M954.4,509.3H403.6c0.6-1.9,1.2-3.8,1.8-5.7h547.2C953.2,505.5,953.8,507.4,954.4,509.3z"
			/>
		<path id="XMLID_113_" fill="#FFFFFF" d="M944.2,480.9H413.8c0.4-1,0.8-1.9,1.2-2.8h528C943.4,479,943.8,479.9,944.2,480.9z"/>
		<path id="XMLID_112_" fill="#FFFFFF" d="M966.3,588.7H391.6c0.1-6.2,0.3-12.4,0.8-18.5h573.1C966,576.3,966.3,582.5,966.3,588.7z"
			/>
		<rect id="XMLID_111_" x="391.6" y="614.2" fill="#FFFFFF" width="574.8" height="28.1"/>
		<g id="XMLID_157_">
			<g id="XMLID_150_">
				<g id="XMLID_104_">
					<polygon id="XMLID_109_" fill="#363638" points="839.7,575.4 839.7,551.4 841.1,551.4 844.5,526.1 833.9,526.1 837.2,551.4 
						838.7,551.4 838.7,575.4 837.2,575.4 833.9,600.7 844.5,600.7 841.1,575.4 					"/>
					<polygon id="XMLID_105_" fill="#363638" points="845.6,573.6 833.6,552.8 834.8,552.1 825.1,528.5 815.9,533.8 831.5,554 
						832.8,553.3 844.8,574.1 843.5,574.8 853.2,598.4 862.4,593.1 846.8,572.9 					"/>
					<polygon id="XMLID_106_" fill="#363638" points="849.8,569 829,557 829.7,555.8 809.5,540.2 804.2,549.4 827.8,559.2 
						828.6,557.8 849.3,569.8 848.6,571.2 868.8,586.7 874.1,577.5 850.5,567.8 					"/>
					<polygon id="XMLID_107_" fill="#363638" points="851.2,563 827.2,563 827.2,561.6 801.9,558.1 801.9,568.7 827.2,565.4 
						827.2,563.9 851.2,563.9 851.2,565.4 876.5,568.7 876.5,558.1 851.2,561.6 					"/>
					<polygon id="XMLID_110_" fill="#363638" points="849.3,557 828.6,569 827.9,567.8 804.2,577.5 809.5,586.7 829.8,571.2 
						829,569.8 849.8,557.8 850.6,559.2 874.1,549.4 868.8,540.2 848.6,555.8 					"/>
					<polygon id="XMLID_135_" fill="#363638" points="844.8,552.8 832.8,573.6 831.6,572.9 815.9,593.1 825.1,598.4 834.9,574.8 
						833.6,574.1 845.6,553.3 846.9,554 862.4,533.8 853.2,528.5 843.6,552.1 					"/>
				</g>
				<polygon id="XMLID_153_" fill="#363638" points="901.5,545.6 854.5,557.5 854.5,563.4 854.5,569.4 901.5,581.2 906.4,563.4 				
					"/>
			</g>
			<polygon id="XMLID_151_" fill="#363638" points="832.3,759.1 829.5,759.1 837.8,558.1 840.6,558.1 			"/>
			<polygon id="XMLID_154_" fill="#363638" points="847.3,759.1 850,759.1 841.7,558.1 839,558.1 			"/>
			<polygon id="XMLID_156_" fill="#363638" points="815.5,759.1 812.7,759.1 835.6,558.1 838.4,558.1 			"/>
			<polygon id="XMLID_155_" fill="#363638" points="864.6,759.1 867.3,759.1 844.4,558.1 841.6,558.1 			"/>
			<rect id="XMLID_152_" x="817.3" y="651.4" fill="#363638" width="43.7" height="3.1"/>
			<rect id="XMLID_158_" x="821.2" y="694" fill="#363638" width="35.9" height="3.1"/>
			<rect id="XMLID_160_" x="829.8" y="616" fill="#363638" width="18.8" height="3.1"/>
			<rect id="XMLID_159_" x="812.7" y="743" fill="#363638" width="52.9" height="3.1"/>
		</g>
		<g id="XMLID_20_">
			<path id="XMLID_95_" fill="#FFFFFF" d="M1111.9,876.6c-1.5-1.3-3.1-2.4-4.5-3.4c-1.1-0.8-2.2-1.6-3-2.3l-7.6-6.3l-4.2-3.8
				l4.5-12.2l0.1-0.4l0.1-0.4c5.7-24.5,9.6-50-0.5-70.4c-9.7-19.6-31.2-32.7-67.6-41.3l-0.1,0l-0.1,0
				c-61.3-11.5-127.6-17.9-215.9-20.4l-2.9-4c-27.2-36.6-52.6-54.5-62.6-60.6c-9-7.2-51-13.8-63.7-15.7
				c-22.1-3.3-66.7-8.7-116.9-8.7c-35.7,0-66.7,2.8-92,8.3c-30.5,6.6-52.6,17.3-65.9,31.6l-0.5,0.6l-0.4,0.7l-32.2,59.9
				c-2.2,0.5-4.7,1-7.3,1.5c-43.6,9-66.9,15.1-72.7,23.4c-6.9,9.6-11.6,31.1-11.7,53.6c0,15.4,2.2,43,17.6,54.8l8.8,6.8l0.4-5.5
				l0.5,0.1c0.6,8.9,5.8,65.3,42.2,71.4c2.3,0.4,4.7,0.6,7,0.6c27.6,0,42.4-27.8,47.4-39.3l134.2,22l7.6,1.2l-0.2-2.3l14.6,2
				c2.2,10,5.4,19.3,9.5,27.6c12.3,25,32.3,40,57.7,43.6c6.9,1,13.5,1.4,19.7,1.4c23.9,0,41.8-7.2,54.7-22.1
				c11.4-13.1,17.4-30.6,21.6-46.6h42c1.5,3.2,4.2,7.6,8.8,12.1c7.2,7,20.6,15.5,43.7,15.5c16.3,0,46.1-0.6,76.9-2
				c1.8,2.3,4.8,5.4,9.5,8.4c10.9,6.8,26.2,10.3,45.3,10.3c38,0,59-17.9,69.9-32.8c8.1-11.2,11.9-22.4,13.5-28.4
				c10.8-1.1,28.5-3.1,43.4-5.5c27.4-4.5,33.5-8.3,34.9-13.8C1115.8,883.9,1116.3,880,1111.9,876.6z"/>
			<g id="XMLID_21_">
				<g id="XMLID_23_">
					<path id="XMLID_94_" fill="#363638" d="M590.7,887.7c0,28.2,18.1,51.4,40.2,51.4c2.9,0,5.8-0.4,8.7-1.1c-0.7,0-1.4,0-2.2,0
						c-22.4,0-40.2-23.2-40.2-51.4c0-24.2,7.6-51,25.3-56.1C601.5,831.9,590.7,860.5,590.7,887.7z"/>
					<path id="XMLID_93_" fill="#363638" d="M364.5,839.8c-0.6-4-1.3-7.7-2.2-11.1c1.8,11.1,2.3,20.3,2.3,20.3
						S364.6,845.4,364.5,839.8z"/>
					<path id="XMLID_92_" fill="#363638" d="M334.5,845.7c0,0-5.1,57.9,17,53.2C351.5,898.9,334.5,893.1,334.5,845.7z"/>
					<path id="XMLID_87_" fill="#363638" d="M1109.3,881.5c-2.5-2.2-5.4-4-7.6-5.8c-1.4,6.9-95.5,24.6-354.6,24.6
						c-42.3,0-64.1-5.1-71.7-7.6c6.5,11.6,15.2,18.8,29,18.8c0,0-22.8,4.3-40.5-17.4c-2.5,31.8-19.2,56.1-39.4,56.1
						c-22.4,0-40.2-29.3-40.2-65.5c0-36.2,18.1-65.5,40.2-65.5c6.9,0,13,2.5,18.5,7.2c-5.4-19.2-13-34.7-29-34.7
						c-55,0-74.9,178.8,19.5,191.8c63,8.7,80-24.6,90.5-67.3h50.7c0,0,7.6,27.5,48.5,27.5c18.1,0,49.2-0.7,80-2.2
						c0,0,8.3,18.8,51.7,18.8c68.8,0,78.5-60.8,78.5-60.8C1061.1,896.7,1121.2,890.2,1109.3,881.5z M605.2,954.3
						c48.1,29.7,69.5-34.7,69.5-34.7C650.4,997.3,605.2,954.3,605.2,954.3z M785,912.3l178-5.4l-174.4,11.6L785,912.3z M980.8,926.8
						c-62.6,17.4-174.4,7.2-174.4,7.2c201.2,8.3,193.2-30,193.2-30S1004,920.2,980.8,926.8z"/>
					<ellipse id="XMLID_86_" fill="#363638" cx="624.4" cy="884.8" rx="8.8" ry="14.4"/>
					<ellipse id="XMLID_85_" fill="#363638" cx="349.2" cy="853.4" rx="5.7" ry="9.3"/>
					<path id="XMLID_84_" fill="#363638" d="M1042.2,799.5c0-10.6,5.5-19.3,12.4-20.3c-0.5-0.1-0.9-0.1-1.4-0.1
						c-7.7,0-13.9,9.2-13.9,20.4c0,11.3,6.2,20.4,13.9,20.4c0.5,0,1,0,1.4-0.1C1047.6,818.8,1042.2,810.1,1042.2,799.5z"/>
					<path id="XMLID_83_" fill="#363638" d="M1057.3,783.9c-0.4-0.1-0.8-0.1-1.3-0.1c-5.9,0-10.7,7-10.7,15.7
						c0,8.7,4.8,15.7,10.7,15.7c0.4,0,0.9,0,1.3-0.1c-5.3-0.9-9.4-7.6-9.4-15.6C1048,791.5,1052.1,784.8,1057.3,783.9z"/>
					<path id="XMLID_82_" fill="#363638" d="M723.4,799.5c0-12.8,6.6-23.3,15-24.6c-0.6-0.1-1.1-0.1-1.7-0.1
						c-9.3,0-16.8,11.1-16.8,24.7c0,13.6,7.5,24.7,16.8,24.7c0.6,0,1.2,0,1.7-0.1C730,822.8,723.4,812.3,723.4,799.5z"/>
					<path id="XMLID_59_" fill="#363638" d="M741.7,780.6c-0.5-0.1-1-0.1-1.6-0.1c-7.1,0-12.9,8.5-12.9,19c0,10.5,5.8,19,12.9,19
						c0.5,0,1,0,1.6-0.1c-6.4-1.1-11.3-9.1-11.3-18.9C730.4,789.8,735.3,781.8,741.7,780.6z"/>
					<path id="XMLID_58_" fill="#363638" d="M757.7,785.9c88.8,3.1,177.9,3.6,267.2,2C935.9,785.8,846.8,785.1,757.7,785.9z"/>
					<path id="XMLID_57_" fill="#363638" d="M804.3,783.2h3.1h3.1h3.1c-11.9-33.8-52.4-53-84.4-53
						C772.1,736.9,795.7,758.9,804.3,783.2z"/>
					<path id="XMLID_56_" fill="#363638" d="M775.2,731.5c6.6,0.6,16.5,1.2,27.9,2.2C792.5,732.4,782.9,731.7,775.2,731.5z"/>
					<path id="XMLID_55_" fill="#363638" d="M907,783.2h3.1h3.1h3.1c-4.5-36.3-70.3-45.7-113.3-49.4
						C847.5,739.3,907.8,755.2,907,783.2z"/>
					<path id="XMLID_54_" fill="#363638" d="M507.3,667.9c-0.6,14.8-0.6,32.1,8.3,43.9c6.3,5.8,101.3-1,153.4-2.1
						c-24.1-21.1-42.7-36.4-63-53.8C570.9,656.2,538.8,659.6,507.3,667.9z"/>
					<path id="XMLID_24_" fill="#363638" d="M590.7,791.8c18.7-15.4,40.3-13.9,57.1,13c9.1,22.9,13,51.6,20.7,73.5
						c16.3,1.4,100.2,9.4,258.7,9.4c139,0,159.6-25.3,159.6-25.3l5.8-15.6c12.8-54.7,8.3-87.6-63.7-104.6
						c-125.1-23.4-264.8-24-508.1-19.2c-18.5,0.4-27.9,4-25.7-63.3c0,0,83.8-32.7,241.9-2.4c24.8,14.3,62.7,54,61,55.1
						c-23.2,0.1-254.1,5.1-276.1,5.1c-25,0-18.1-51.4-18.1-51.4c77.1-27.5,229.4-4.3,229.4-4.3c-154.5-31.8-233.8,0-233.8,0
						c-2.2,62.6,6.9,59,23.9,58.6c13.8-0.3,259.9-4,283-5c-27.3-36.7-52.2-53.7-61.3-59.3c-0.1-0.1-0.2-0.1-0.3-0.2
						c-16.6-13.8-269.2-51.4-330.4,14.8l-33.3,61.9v0.4c-21.9,4.7-73,14-79.3,23.2c-12.4,17-17.4,83.2,4.7,100.2
						c1.4-21.7,6.9-76,30.4-79.3c4.2-0.6,7.8,0.5,10.9,2.7c-23.9-13.9-38.6,50.9-38.2,76l6.9,1.4c0,0,2.3-24.4,6.3-42.2
						c4-17.8,10.9-31,25-26.1c5.3,1.8,9.6,8.7,12.9,16.6c2.7,12.1,3.5,25.5,3.7,34c0.7,5.2,1.1,10.9,1.1,16.8
						c0,26.4-8,47.8-17.7,47.8c-9.8,0-17.7-21.4-17.7-47.8c0-26.4,8-47.8,17.7-47.8c5.9,0,11.2,7.8,14.4,19.9
						c-2.7-16.8-8.5-38-20.5-38c-19.9,0-23.2,70.6-23.2,70.6s2.9,61.2,37.3,66.9c34.4,5.8,49.6-39.4,49.6-39.4l139,22.8
						c0,0-12.1-132.1,45-144.8c-34.5,21.3-46.3,97.1-39.1,143.6l17.3,2.3C554.2,870.4,572,807.2,590.7,791.8z M1018.3,873.6
						c-20.3,0-195.8,5.8-208.4,5.8c-9.9,0-16.9-4.9-20.1-11.7l240,1.8C1026,872.1,1022.1,873.6,1018.3,873.6z M1034.5,865.5
						l-245,1.8c-1.2-2.7-1.9-5.7-1.9-8.7l251.4,1.9C1037.6,862.2,1036.1,863.9,1034.5,865.5z M1041.9,856.3l-254.3,1.9
						c0-2.9,0.6-5.9,1.8-8.8l255.3,1.9C1043.9,853,1042.9,854.7,1041.9,856.3z M1046.6,847.2l-257,1.9c1.3-3.1,3.3-6.1,6.1-8.7
						l252.4,1.9C1047.7,843.8,1047.2,845.5,1046.6,847.2z M796.2,839.9c6.5-5.9,16.7-10,31.4-10c50.3,0,190.7,0,213.9,0
						c5.2,0,7.3,3.3,7.2,8.2L796.2,839.9z M1053.2,824.6c-9.4,0-17-11.2-17-25.1c0-13.8,7.6-25.1,17-25.1s17,11.2,17,25.1
						C1070.2,813.3,1062.6,824.6,1053.2,824.6z M1043.4,754.7c26.5,10.9,49.3,23,35.4,101.1c-0.1-9.3,12.7-72.4-22.7-90.6
						c-9.2-4.8-25.1-13.1-47.2-18.3c-30.3-7.1-73.4-11.1-139.1-16.1C968.2,734.7,1010.5,741.2,1043.4,754.7z M824.5,729.5
						c97.3,9.4,198.5,12.8,225.2,44.6c-0.4-0.1-0.9-0.1-1.4-0.1c-7.9,0-14.5,7.9-16.4,18.7c-92.9,2-185.5,1.1-277.8-1.8
						c0.5,2.6,0.8,5.4,0.8,8.3c0,4.3-0.6,8.3-1.7,12c93.7-0.6,187.4,0.2,281,2.3c0.1,0.3,0.3,0.6,0.4,0.8
						c-94.2,1.4-188.1,0.9-281.8-1.9c-3.3,9.8-10,16.5-17.9,16.5c-1.2,0-2.5-0.2-3.6-0.5c-0.2,0-0.3-0.1-0.5-0.1
						c-0.1,0-0.3-0.1-0.4-0.1c-0.2-0.1-0.3-0.1-0.5-0.2c-0.1,0-0.2-0.1-0.4-0.2c-0.3-0.1-0.7-0.3-1-0.5c-0.1-0.1-0.2-0.1-0.3-0.2
						c-0.2-0.1-0.3-0.2-0.5-0.3c-0.1-0.1-0.3-0.1-0.4-0.2c-0.2-0.1-0.3-0.2-0.5-0.3c-0.1-0.1-0.3-0.2-0.4-0.3
						c-0.1-0.1-0.3-0.2-0.4-0.3c-0.1-0.1-0.3-0.2-0.4-0.3c-0.1-0.1-0.3-0.2-0.4-0.3c-0.1-0.1-0.2-0.2-0.4-0.3
						c-0.1-0.1-0.3-0.2-0.4-0.4c-0.1-0.1-0.2-0.2-0.4-0.3c-0.1-0.1-0.3-0.3-0.4-0.4c-0.1-0.1-0.2-0.3-0.4-0.4
						c-0.1-0.1-0.3-0.3-0.4-0.4c-0.1-0.1-0.2-0.3-0.4-0.4c-0.1-0.1-0.2-0.3-0.3-0.4c-0.2-0.2-0.3-0.4-0.5-0.7
						c-0.1-0.2-0.3-0.4-0.4-0.6c-0.1-0.2-0.2-0.3-0.4-0.5c-0.1-0.1-0.2-0.3-0.3-0.5c-0.1-0.2-0.2-0.3-0.3-0.5
						c-0.1-0.2-0.2-0.3-0.3-0.5c-0.1-0.2-0.2-0.4-0.3-0.5c-0.1-0.2-0.2-0.3-0.3-0.5c-0.1-0.2-0.2-0.4-0.3-0.6
						c-0.1-0.2-0.2-0.3-0.3-0.5c-0.1-0.2-0.2-0.4-0.3-0.6c-0.1-0.2-0.2-0.3-0.2-0.5c-0.1-0.2-0.2-0.4-0.3-0.6
						c-0.1-0.2-0.1-0.3-0.2-0.5c-0.1-0.2-0.2-0.5-0.3-0.7c-0.1-0.2-0.1-0.3-0.2-0.5c-0.1-0.3-0.2-0.6-0.3-0.9c0-0.1-0.1-0.2-0.1-0.3
						c-0.1-0.4-0.3-0.8-0.4-1.2c0-0.1-0.1-0.3-0.1-0.4c-0.1-0.3-0.2-0.6-0.2-0.9c0-0.2-0.1-0.3-0.1-0.5c-0.1-0.3-0.1-0.5-0.2-0.8
						c0-0.2-0.1-0.4-0.1-0.6c-0.1-0.3-0.1-0.5-0.2-0.8c0-0.2-0.1-0.4-0.1-0.6c0-0.3-0.1-0.5-0.1-0.8c0-0.2-0.1-0.4-0.1-0.6
						c0-0.3-0.1-0.5-0.1-0.8c0-0.2,0-0.4-0.1-0.6c0-0.3-0.1-0.6-0.1-0.9c0-0.2,0-0.4,0-0.6c0-0.3,0-0.6,0-1c0-0.2,0-0.3,0-0.5
						c0-0.5,0-1,0-1.5c0-14.7,10.5-27.3,20-29.7c-7.3-0.6-13.6,3-18.2,8.4c-7.5-23.2-24.9-42.9-55.1-50.5l120.9,2
						c106,10.2,216.5,13.4,230.5,53.7h12.9c-13.9-40.3-124.5-43.5-230.5-53.7l-134.8-2.3c-0.7-0.2-1.5-0.4-2.2-0.5L824.5,729.5z
						 M673.3,742.3c16.6,9.7,28,26,35.2,54.9c-0.1,0.7-0.1,1.4-0.1,2c0,6.8,1.5,13.1,4.1,18.1c2,12.3,3.4,26.3,4.4,42.4
						c-4.4-31.4-9.4-77-35.3-104.4c-13.9-14.7-36.5-18.7-58.5-21.1c-28.2-3.1-55.8-2.2-67.6-3.2C619.7,727.4,650.4,729,673.3,742.3z
						 M472,663.7c6.5-1.1,10.9-1.8,11.9-1.8l0.1,1.4l-8.6,1.7l-2.7,62.2l15.6-1.4l0,0.5l-18.8,3.3L472,663.7z M427.1,676.7
						c4.3-4.7,25.7-9.4,40.9-11.9l-0.2,3.5c-14.8,2.5-33.2,6.6-37.4,11.3c-6.4,7.2-22.4,36.2-25.7,42.4
						c15.6-0.9,19.6,13.8,19.6,13.8l39.7-6.3l-0.1,1.1l-43.4,7.2c0,0-4-13-20.6-14.5C400,723.4,420.6,683.9,427.1,676.7z
						 M329.8,766.7c38.8-4.3,59.4,27.5,48.6,90.7C382.1,813.6,375.2,767,329.8,766.7z M347.9,917.4c22.8,5.1,25.3-37.6,25.3-38
						l4.7,5.4C369.9,928.6,347.9,917.4,347.9,917.4z M377.9,872.9c52.7,7.9,104.9,17.8,156.8,29.3
						C481.6,895.3,429.3,885.7,377.9,872.9z M485,751.5l4.7,88.7c0.5,24.2,7.4,35.5,13.3,46.3c-10.2-13.1-14.5-29.1-15.4-46.3
						l-4.7-88.5c-61.5,3.1-121.2,8.3-177.5,9.2c62.2-3.8,120.8-10.7,180.8-14.4v-0.2h4v0c35.9-2.1,72.3-3.1,110.3-1.6
						c65.4,10.2,77.1,69.5,78.5,125.2c-4.7-63.5-29.9-118.9-97.3-120.5C552.4,748.8,516.4,750,485,751.5z"/>
				</g>
				<path id="XMLID_22_" fill="#363638" d="M660.9,656c38.3,29.7,59.1,53.5,59.1,53.5s27,1.2,25.7-1c-1.3-2.2-58.6-49.1-58.6-49.1
					C670.3,657.2,660.9,656,660.9,656z"/>
			</g>
		</g>
		<circle id="XMLID_96_" fill="#FFFFFF" cx="679" cy="454.9" r="65"/>
	</g>
	
		<text id="XMLID_97_" transform="matrix(1 0 0 1 557.876 1245.5273)" fill="#363638" font-family="'BarlowCondensed-Bold'" font-size="78.3902px" letter-spacing="15">-1970-</text>
	<text id="XMLID_116_" transform="matrix(1 0 0 1 350.7652 1166.2588)"><tspan x="0" y="0" fill="#FF6056" font-family="'BarlowCondensed-Bold'" font-size="221.4592px">SUM</tspan><tspan x="326.2" y="0" fill="#FF6056" font-family="'BarlowCondensed-Bold'" font-size="221.4592px">M</tspan><tspan x="446.5" y="0" fill="#FF6056" font-family="'BarlowCondensed-Bold'" font-size="221.4592px">ER</tspan></text>
</g>
</svg>
